<svg class="svg-canvas" viewBox="0 0 800 600" width="1600" height="1200" preserveAspectRatio="none" version="1.1" xmlns="http://www.w3.org/2000/svg" xmlns:xlink="http://www.w3.org/1999/xlink">
        <!--滤镜-->
        <defs></defs>

        <!-- 背景 -->
        <g id="background">
            
            
          </g>

        <!--元素-->
        
                <g id="shape_l2A3abbraa" ref="shape_l2A3abbraa" key="shape_l2A3abbraa" mask="">
                  <g transform="translate(45,219.94594018885) rotate(0,47.011965735042,53.453278013672) scale(1,1)" style="opacity: 1;mix-blend-mode: undefined;" filter="">
                    <!--普通元素-->
                    <svg version="1.1" id="TTdy5FN9rj" xmlns="http://www.w3.org/2000/svg" xmlns:xlink="http://www.w3.org/1999/xlink" x="0px" y="0px" width="94.023931470085" height="106.90655602734" viewBox="0 0 122.25 139" style="enable-background:new 0 0 122.25 139;" xml:space="preserve" class="style-removed" preserveAspectRatio="none" data-parent="shape_l2A3abbraa">

<linearGradient id="SVGID_1__6CqEI84tqZ" gradientUnits="userSpaceOnUse" x1="108.3965" y1="4.8826" x2="48.4241" y2="169.5435">
	<stop offset="0" stop-color="#ec008c"></stop>
	<stop offset="0.1301" stop-color="#ec008c"></stop>
	<stop offset="0.2571" stop-color="#ec008c"></stop>
	<stop offset="0.3829" stop-color="#ec008c"></stop>
	<stop offset="0.508" stop-color="#ec008c"></stop>
	<stop offset="0.6326" stop-color="#ec008c"></stop>
	<stop offset="0.7569" stop-color="#ec008c"></stop>
	<stop offset="0.8786" stop-color="#ec008c"></stop>
	<stop offset="1" stop-color="#ec008c"></stop>
</linearGradient>
<path d="M111.03,3.96C110.84,1.71,108.96,0,106.71,0L60.58,0.02c-1.73,0-3.29,1.03-3.97,2.61L0.36,132.94
	c-1.23,2.85,0.85,6.04,3.96,6.04c9.14,0.02,27.65,0.04,37.04-0.03c1.82-0.01,3.43-1.15,4.04-2.86c1.15-3.22,3.03-8.53,5.16-14.59
	c0.02-0.04,0.04-0.08,0.06-0.13l12.85-36.9c0.29-0.82-0.32-1.69-1.2-1.69H39.5c-1.09,0-1.67-1.28-0.96-2.1l45.13-52.32
	c0.85-0.99,2.46-0.2,2.2,1.08l-6.31,31.16C79.4,61.4,80,62.14,80.8,62.14h18.86c1.08,0,1.67,1.27,0.96,2.1l-46.81,54.46
	c0.26-0.05,0.52-0.09,0.79-0.09c6.38-0.07,14.07-0.03,20.46-0.02c2.41,0.01,4.35,1.98,4.31,4.4c-0.06,3.59-0.18,7.89-0.31,11.53
	c-0.08,2.46,1.89,4.49,4.35,4.47c9.38-0.07,24.99-0.07,34.49,0c2.55,0.02,4.56-2.17,4.33-4.71
	C119.78,107.5,112.66,23.24,111.03,3.96z" fill="url(#SVGID_1__6CqEI84tqZ)" stroke-width="0"></path>
</svg>
                  </g>
                </g>
                <g id="shape_EMEo9HPeKg" ref="shape_EMEo9HPeKg" key="shape_EMEo9HPeKg" mask="">
                  <g transform="translate(-381.8681874658,-354.46566506259103) rotate(0,632.89211893588,617.51711893588) scale(1,1)" style="opacity: 1;mix-blend-mode: undefined;" filter="">
                    <!--普通元素-->
                    <svg xmlns="http://www.w3.org/2000/svg" version="1.1" xmlns:xlink="http://www.w3.org/1999/xlink" width="1265.78423787176" height="1220.28423787176" viewBox="0 14.75 1265.78423787176 1220.28423787176" data-ligature="true" data-parent="shape_EMEo9HPeKg">
  <g data-role="text" data-width="203.91870661107978" data-height="208">
    <path d="M581.49 616.89Q581.64 616.13 582.36 615.59 583.08 615.05 583.95 615.05 583.95 615.05 583.95 615.05 596.27 615.05 608.6 615.05 609.47 615.05 609.97 615.59 610.47 616.13 610.32 616.89 610.32 616.89 610.32 616.89 602.77 654.56 595.22 692.22 595.07 692.98 594.35 693.52 593.64 694.05 592.77 694.05 592.77 694.05 592.77 694.05 580.44 694.05 568.12 694.05 567.25 694.05 566.74 693.52 566.24 692.98 566.39 692.22 566.39 692.22 566.39 692.22 566.59 691.23 566.79 690.23 566.88 689.78 566.55 689.7 566.23 689.62 565.78 690.08 565.78 690.08 565.78 690.08 562.6 692.98 558.63 694.13 554.66 695.28 549.64 695.28 549.64 695.28 549.64 695.28 539.22 695.28 533.41 689.62 527.6 683.97 529.96 672.2 529.96 672.2 529.96 672.2 535.5 644.54 541.04 616.89 541.19 616.13 541.91 615.59 542.62 615.05 543.49 615.05 543.49 615.05 543.49 615.05 555.82 615.05 568.15 615.05 569.02 615.05 569.51 615.59 570.01 616.13 569.86 616.89 569.86 616.89 569.86 616.89 564.88 641.72 559.91 666.55 558.53 673.42 564.09 673.42 564.09 673.42 564.09 673.42 567.04 673.42 568.97 671.59 570.9 669.76 571.57 666.39 571.57 666.39 571.57 666.39 576.53 641.64 581.49 616.89 581.49 616.89 581.49 616.89" fill="rgb(255, 255, 255)" stroke="rgb(255, 255, 255)" stroke-width="0.289" data-glyph-w="76.00166220369326" data-glyph-h="208.356" data-glyph-ascender="173.63" data-glyph-descender="-34.726" data-kerning="0"></path>
    <path d="M658.87 630.8Q658.72 631.56 658 632.09 657.3 632.63 656.43 632.63 656.43 632.63 656.43 632.63 652 632.63 647.57 632.63 646.7 632.63 646.54 633.39 646.54 633.39 646.54 633.39 643.27 649.74 639.99 666.09 639.29 669.61 640.66 670.98 642.04 672.35 645.37 672.2 645.37 672.2 645.37 672.2 645.79 672.2 646.24 672.2 647.11 672.2 647.61 672.74 648.1 673.28 647.95 674.03 647.95 674.03 647.95 674.03 646.13 683.12 644.3 692.22 644.15 692.98 643.45 693.52 642.73 694.05 641.86 694.05 641.86 694.05 641.86 694.05 637.95 694.05 634.04 694.05 620.5 694.05 614.38 690.38 608.26 686.72 610.37 676.18 610.37 676.18 610.37 676.18 614.66 654.79 618.94 633.39 619.1 632.63 618.23 632.63 618.23 632.63 618.23 632.63 615.45 632.63 612.66 632.63 611.79 632.63 611.29 632.09 610.79 631.56 610.95 630.8 610.95 630.8 610.95 630.8 612.35 623.85 613.74 616.89 613.89 616.13 614.61 615.59 615.32 615.05 616.19 615.05 616.19 615.05 616.19 615.05 618.97 615.05 621.75 615.05 622.62 615.05 622.77 614.3 622.77 614.3 622.77 614.3 624.47 605.81 626.16 597.33 626.32 596.57 627.03 596.04 627.75 595.5 628.62 595.5 628.62 595.5 628.62 595.5 640.34 595.5 652.05 595.5 652.92 595.5 653.42 596.04 653.91 596.57 653.77 597.33 653.77 597.33 653.77 597.33 652.07 605.81 650.37 614.3 650.22 615.05 651.09 615.05 651.09 615.05 651.09 615.05 655.52 615.05 659.95 615.05 660.82 615.05 661.31 615.59 661.81 616.13 661.66 616.89 661.66 616.89 661.66 616.89 660.27 623.85 658.87 630.8 658.87 630.8 658.87 630.8" fill="rgb(255, 255, 255)" stroke="rgb(255, 255, 255)" stroke-width="0.289" data-glyph-w="48.91538220369326" data-glyph-h="208.356" data-glyph-ascender="173.63" data-glyph-descender="-34.726" data-kerning="0"></path>
    <path d="M712.06 613.83Q724.39 613.83 728.88 620.86 733.37 627.89 730.8 640.72 730.8 640.72 730.8 640.72 725.64 666.47 720.48 692.22 720.33 692.98 719.62 693.52 718.9 694.05 718.03 694.05 718.03 694.05 718.03 694.05 705.7 694.05 693.37 694.05 692.51 694.05 692.01 693.52 691.51 692.98 691.66 692.22 691.66 692.22 691.66 692.22 696.65 667.31 701.64 642.4 703.02 635.53 697.46 635.53 697.46 635.53 697.46 635.53 694.51 635.53 692.58 637.36 690.65 639.2 689.98 642.56 689.98 642.56 689.98 642.56 685.01 667.39 680.03 692.22 679.88 692.98 679.16 693.52 678.44 694.05 677.57 694.05 677.57 694.05 677.57 694.05 665.25 694.05 652.91 694.05 652.04 694.05 651.54 693.52 651.05 692.98 651.21 692.22 651.21 692.22 651.21 692.22 661.56 640.57 671.91 588.93 672.06 588.16 672.77 587.63 673.48 587.1 674.35 587.1 674.35 587.1 674.35 587.1 686.68 587.1 699 587.1 699.87 587.1 700.38 587.63 700.88 588.16 700.73 588.93 700.73 588.93 700.73 588.93 697.62 604.43 694.51 619.95 694.45 620.26 694.8 620.26 694.8 620.26 694.8 620.26 695.49 620.26 696.37 619.33 696.37 619.33 696.37 619.33 702.68 613.83 712.06 613.83 712.06 613.83 712.06 613.83 712.06 613.83 712.06 613.83" fill="rgb(255, 255, 255)" stroke="rgb(255, 255, 255)" stroke-width="0.289" data-glyph-w="76.00166220369326" data-glyph-h="208.356" data-glyph-ascender="173.63" data-glyph-descender="-34.726" data-kerning="0"></path>
  </g>
</svg>
                  </g>
                </g>
                <g id="shape_1iRCjeo2OZ" ref="shape_1iRCjeo2OZ" key="shape_1iRCjeo2OZ" mask="">
                  <g transform="translate(-170.36818746580008,-354.46566506259103) rotate(0,755.3942331172555,617.51711893588) scale(1,1)" style="opacity: 1;mix-blend-mode: undefined;" filter="">
                    <!--普通元素-->
                    <svg xmlns="http://www.w3.org/2000/svg" version="1.1" xmlns:xlink="http://www.w3.org/1999/xlink" width="1510.7926945972617" height="1220.28423787176" viewBox="-0.0042283627509505095 14.75 1510.7926945972617 1220.28423787176" data-ligature="true" data-parent="shape_1iRCjeo2OZ">
  <g data-role="text" data-width="235.51936661107982" data-height="208">
    <path d="M591.09 588.93Q591.24 588.16 591.95 587.63 592.66 587.1 593.54 587.1 593.54 587.1 593.54 587.1 605.87 587.1 618.2 587.1 619.05 587.1 619.55 587.63 620.05 588.16 619.91 588.93 619.91 588.93 619.91 588.93 609.55 640.57 599.21 692.22 599.05 692.98 598.34 693.52 597.63 694.05 596.77 694.05 596.77 694.05 596.77 694.05 584.44 694.05 572.11 694.05 571.24 694.05 570.73 693.52 570.24 692.98 570.39 692.22 570.39 692.22 570.39 692.22 574.4 672.2 578.41 652.19 578.57 651.42 577.7 651.42 577.7 651.42 577.7 651.42 571.45 651.42 565.2 651.42 564.33 651.42 564.16 652.19 564.16 652.19 564.16 652.19 560.16 672.2 556.15 692.22 556 692.98 555.28 693.52 554.57 694.05 553.71 694.05 553.71 694.05 553.71 694.05 541.38 694.05 529.04 694.05 528.17 694.05 527.66 693.52 527.17 692.98 527.33 692.22 527.33 692.22 527.33 692.22 537.67 640.57 548.03 588.93 548.17 588.16 548.89 587.63 549.61 587.1 550.48 587.1 550.48 587.1 550.48 587.1 562.8 587.1 575.14 587.1 576 587.1 576.5 587.63 577 588.16 576.85 588.93 576.85 588.93 576.85 588.93 572.86 608.87 568.86 628.81 568.71 629.57 569.58 629.57 569.58 629.57 569.58 629.57 575.83 629.57 582.08 629.57 582.95 629.57 583.1 628.81 583.1 628.81 583.1 628.81 587.1 608.87 591.09 588.93 591.09 588.93 591.09 588.93" fill="rgb(255, 255, 255)" stroke="rgb(255, 255, 255)" stroke-width="0.289" data-glyph-w="80.86330220369327" data-glyph-h="208.356" data-glyph-ascender="173.63" data-glyph-descender="-34.726" data-kerning="0"></path>
    <path d="M662.35 616.89Q662.5 616.13 663.22 615.59 663.94 615.05 664.81 615.05 664.81 615.05 664.81 615.05 677.13 615.05 689.46 615.05 690.33 615.05 690.83 615.59 691.33 616.13 691.18 616.89 691.18 616.89 691.18 616.89 683.63 654.56 676.09 692.22 675.94 692.98 675.22 693.52 674.5 694.05 673.63 694.05 673.63 694.05 673.63 694.05 661.31 694.05 648.98 694.05 648.11 694.05 647.61 693.52 647.11 692.98 647.26 692.22 647.26 692.22 647.26 692.22 647.46 691.23 647.66 690.23 647.75 689.78 647.41 689.7 647.09 689.62 646.65 690.08 646.65 690.08 646.65 690.08 643.47 692.98 639.49 694.13 635.54 695.28 630.51 695.28 630.51 695.28 630.51 695.28 620.09 695.28 614.27 689.62 608.46 683.97 610.82 672.2 610.82 672.2 610.82 672.2 616.36 644.54 621.9 616.89 622.04 616.13 622.77 615.59 623.48 615.05 624.35 615.05 624.35 615.05 624.35 615.05 636.67 615.05 649.01 615.05 649.88 615.05 650.37 615.59 650.87 616.13 650.72 616.89 650.72 616.89 650.72 616.89 645.75 641.72 640.77 666.55 639.39 673.42 644.95 673.42 644.95 673.42 644.95 673.42 647.9 673.42 649.83 671.59 651.76 669.76 652.42 666.39 652.42 666.39 652.42 666.39 657.39 641.64 662.35 616.89 662.35 616.89 662.35 616.89" fill="rgb(255, 255, 255)" stroke="rgb(255, 255, 255)" stroke-width="0.289" data-glyph-w="76.00166220369326" data-glyph-h="208.356" data-glyph-ascender="173.63" data-glyph-descender="-34.726" data-kerning="0"></path>
    <path d="M744.53 613.83Q768.32 613.83 763.02 640.27 763.02 640.27 763.02 640.27 760.16 654.55 757.29 668.84 752 695.28 728.21 695.28 728.21 695.28 728.21 695.28 718.14 695.28 713.69 688.86 713.69 688.86 713.69 688.86 713.4 688.55 713.05 688.63 712.68 688.7 712.59 689.16 712.59 689.16 712.59 689.16 712.29 690.69 711.98 692.22 711.83 692.98 711.11 693.52 710.39 694.05 709.52 694.05 709.52 694.05 709.52 694.05 697.2 694.05 684.87 694.05 684 694.05 683.5 693.52 683.01 692.98 683.16 692.22 683.16 692.22 683.16 692.22 693.51 640.57 703.86 588.93 704.01 588.16 704.72 587.63 705.43 587.1 706.3 587.1 706.3 587.1 706.3 587.1 718.63 587.1 730.95 587.1 731.82 587.1 732.33 587.63 732.83 588.16 732.68 588.93 732.68 588.93 732.68 588.93 729.52 604.66 726.37 620.4 726.31 620.71 726.48 620.71 726.48 620.71 726.48 620.71 727 620.71 728.84 619.33 728.84 619.33 728.84 619.33 735.5 613.83 744.53 613.83 744.53 613.83 744.53 613.83 744.53 613.83 744.53 613.83M733.79 642.26Q734.4 639.2 733.21 637.36 732.02 635.53 729.41 635.53 729.41 635.53 729.41 635.53 726.64 635.53 724.62 637.36 722.6 639.2 721.99 642.26 721.99 642.26 721.99 642.26 719.53 654.55 717.06 666.85 716.45 669.91 717.73 671.74 719.02 673.57 721.79 673.57 721.79 673.57 721.79 673.57 724.4 673.57 726.32 671.74 728.25 669.91 728.86 666.85 728.86 666.85 728.86 666.85 731.33 654.55 733.79 642.26 733.79 642.26 733.79 642.26" fill="rgb(255, 255, 255)" stroke="rgb(255, 255, 255)" stroke-width="0.289" data-glyph-w="75.65440220369327" data-glyph-h="208.356" data-glyph-ascender="173.63" data-glyph-descender="-34.726" data-kerning="0"></path>
  </g>
</svg>
                  </g>
                </g>
                <g id="shape_GIXPxJ7hWY" ref="shape_GIXPxJ7hWY" key="shape_GIXPxJ7hWY" mask="">
                  <g transform="translate(402.52393147008,76.39921820251999) rotate(0,426.5,227.285) scale(1,1)" style="opacity: 1;mix-blend-mode: undefined;" filter="">
                    <!--普通元素-->
                    <svg xmlns="http://www.w3.org/2000/svg" version="1.1" xmlns:xlink="http://www.w3.org/1999/xlink" width="853" height="449.14" viewBox="0 5.430000000000007 853 449.14" data-ligature="true" data-parent="shape_GIXPxJ7hWY">
  <g data-role="text" data-width="108.32000000000001" data-height="76">
    <path d="M199.48 255.39Q197.05 255.39 195.75 254.02 194.46 252.64 194.89 250.5 194.89 250.5 194.89 250.5 195.33 248.3 197.17 246.94 199.01 245.6 201.44 245.6 201.44 245.6 201.44 245.6 203.87 245.6 205.14 246.94 206.41 248.3 205.97 250.5 205.97 250.5 205.97 250.5 205.54 252.64 203.69 254.02 201.85 255.39 199.48 255.39 199.48 255.39 199.48 255.39 199.48 255.39 199.48 255.39" fill="rgb(255, 255, 255)" stroke="rgb(255, 255, 255)" stroke-width="0.107" data-glyph-w="12.040000000000001" data-glyph-h="76.8" data-glyph-ascender="64" data-glyph-descender="-12.8" data-kerning="0"></path>
    <path d="M226.89 231.74Q226.83 232.02 226.56 232.22 226.3 232.41 225.98 232.41 225.98 232.41 225.98 232.41 224.35 232.41 222.71 232.41 222.39 232.41 222.34 232.7 222.34 232.7 222.34 232.7 221.13 238.72 219.92 244.75 219.66 246.05 220.17 246.56 220.68 247.06 221.91 247 221.91 247 221.91 247 222.07 247 222.23 247 222.55 247 222.73 247.2 222.91 247.4 222.85 247.68 222.85 247.68 222.85 247.68 222.18 251.03 221.51 254.38 221.45 254.66 221.19 254.86 220.94 255.06 220.62 255.06 220.62 255.06 220.62 255.06 219.18 255.06 217.74 255.06 212.74 255.06 210.49 253.7 208.23 252.35 209.01 248.47 209.01 248.47 209.01 248.47 210.59 240.58 212.17 232.7 212.22 232.41 211.9 232.41 211.9 232.41 211.9 232.41 210.88 232.41 209.85 232.41 209.53 232.41 209.35 232.22 209.16 232.02 209.22 231.74 209.22 231.74 209.22 231.74 209.73 229.18 210.24 226.61 210.3 226.33 210.57 226.14 210.83 225.94 211.15 225.94 211.15 225.94 211.15 225.94 212.17 225.94 213.2 225.94 213.52 225.94 213.58 225.66 213.58 225.66 213.58 225.66 214.2 222.53 214.83 219.41 214.88 219.13 215.14 218.92 215.41 218.73 215.73 218.73 215.73 218.73 215.73 218.73 220.05 218.73 224.37 218.73 224.69 218.73 224.87 218.92 225.05 219.13 225 219.41 225 219.41 225 219.41 224.37 222.53 223.75 225.66 223.69 225.94 224.01 225.94 224.01 225.94 224.01 225.94 225.64 225.94 227.28 225.94 227.6 225.94 227.78 226.14 227.97 226.33 227.91 226.61 227.91 226.61 227.91 226.61 227.4 229.18 226.89 231.74 226.89 231.74 226.89 231.74" fill="rgb(255, 255, 255)" stroke="rgb(255, 255, 255)" stroke-width="0.107" data-glyph-w="16.136" data-glyph-h="76.8" data-glyph-ascender="64" data-glyph-descender="-12.8" data-kerning="0"></path>
    <path d="M249.91 242.38Q249.85 242.67 249.59 242.86 249.32 243.06 249 243.06 249 243.06 249 243.06 242.03 243.06 235.05 243.06 234.73 243.06 234.68 243.34 234.68 243.34 234.68 243.34 234.51 244.19 234.34 245.03 234.11 246.16 234.59 246.84 235.06 247.51 236.08 247.51 236.08 247.51 236.08 247.51 236.98 247.51 237.67 246.94 238.36 246.38 238.72 245.53 238.72 245.53 238.72 245.53 238.9 244.92 239.67 244.92 239.67 244.92 239.67 244.92 244.04 245.14 248.41 245.37 248.73 245.37 248.92 245.57 249.1 245.76 248.98 246.1 248.98 246.1 248.98 246.1 246.51 255.51 234.48 255.51 234.48 255.51 234.48 255.51 228.4 255.51 225.52 252.94 222.65 250.38 223.57 245.76 223.57 245.76 223.57 245.76 224.63 240.49 225.68 235.23 226.56 230.84 230.52 228.16 234.48 225.49 240.5 225.49 240.5 225.49 240.5 225.49 246.52 225.49 249.37 228.14 252.23 230.79 251.34 235.23 251.34 235.23 251.34 235.23 250.63 238.8 249.91 242.38 249.91 242.38 249.91 242.38M238.89 233.49Q237.87 233.49 237.13 234.17 236.38 234.83 236.16 235.96 236.16 235.96 236.16 235.96 235.98 236.83 235.81 237.71 235.75 237.99 236.07 237.99 236.07 237.99 236.07 237.99 237.96 237.99 239.85 237.99 240.17 237.99 240.23 237.71 240.23 237.71 240.23 237.71 240.4 236.83 240.58 235.96 240.79 234.9 240.32 234.19 239.85 233.49 238.89 233.49 238.89 233.49 238.89 233.49 238.89 233.49 238.89 233.49" fill="rgb(255, 255, 255)" stroke="rgb(255, 255, 255)" stroke-width="0.107" data-glyph-w="25.544" data-glyph-h="76.8" data-glyph-ascender="64" data-glyph-descender="-12.8" data-kerning="0"></path>
    <path d="M260.02 255.51Q253.95 255.51 251.07 252.94 248.19 250.38 249.12 245.76 249.12 245.76 249.12 245.76 250.17 240.49 251.23 235.23 252.11 230.84 256.06 228.16 260.02 225.49 266.04 225.49 266.04 225.49 266.04 225.49 272.06 225.49 274.92 228.14 277.77 230.79 276.92 235.06 276.92 235.06 276.92 235.06 276.8 235.68 276.67 236.3 276.62 236.58 276.36 236.78 276.08 236.98 275.77 236.98 275.77 236.98 275.77 236.98 271.19 237.15 266.61 237.32 265.85 237.32 265.99 236.64 265.99 236.64 265.99 236.64 266.07 236.22 266.14 235.79 266.35 234.83 265.87 234.17 265.39 233.49 264.44 233.49 264.44 233.49 264.44 233.49 263.42 233.49 262.67 234.17 261.93 234.83 261.7 235.96 261.7 235.96 261.7 235.96 260.79 240.49 259.88 245.03 259.66 246.16 260.13 246.84 260.61 247.51 261.63 247.51 261.63 247.51 261.63 247.51 262.58 247.51 263.33 246.84 264.08 246.16 264.27 245.15 264.27 245.15 264.27 245.15 264.37 244.73 264.45 244.3 264.51 244.02 264.77 243.82 265.02 243.63 265.35 243.63 265.35 243.63 265.35 243.63 269.89 243.65 274.42 243.68 274.74 243.68 274.93 243.88 275.12 244.07 275.06 244.36 275.06 244.36 275.06 244.36 274.91 245.11 274.75 245.88 273.83 250.44 269.97 252.97 266.11 255.51 260.02 255.51 260.02 255.51 260.02 255.51 260.02 255.51 260.02 255.51" fill="rgb(255, 255, 255)" stroke="rgb(255, 255, 255)" stroke-width="0.107" data-glyph-w="25.48" data-glyph-h="76.8" data-glyph-ascender="64" data-glyph-descender="-12.8" data-kerning="0"></path>
    <path d="M295.62 225.49Q300.16 225.49 301.82 228.08 303.47 230.67 302.52 235.4 302.52 235.4 302.52 235.4 300.62 244.88 298.72 254.38 298.66 254.66 298.39 254.86 298.14 255.06 297.82 255.06 297.82 255.06 297.82 255.06 293.27 255.06 288.74 255.06 288.42 255.06 288.22 254.86 288.04 254.66 288.1 254.38 288.1 254.38 288.1 254.38 289.94 245.2 291.77 236.02 292.29 233.49 290.24 233.49 290.24 233.49 290.24 233.49 289.14 233.49 288.44 234.17 287.73 234.83 287.48 236.07 287.48 236.07 287.48 236.07 285.64 245.23 283.81 254.38 283.75 254.66 283.49 254.86 283.23 255.06 282.91 255.06 282.91 255.06 282.91 255.06 278.36 255.06 273.82 255.06 273.5 255.06 273.31 254.86 273.13 254.66 273.19 254.38 273.19 254.38 273.19 254.38 277 235.34 280.82 216.31 280.88 216.03 281.14 215.83 281.39 215.63 281.7 215.63 281.7 215.63 281.7 215.63 286.26 215.63 290.8 215.63 291.12 215.63 291.32 215.83 291.5 216.03 291.44 216.31 291.44 216.31 291.44 216.31 290.29 222.02 289.14 227.74 289.13 227.86 289.26 227.86 289.26 227.86 289.26 227.86 289.51 227.86 289.83 227.51 289.83 227.51 289.83 227.51 292.16 225.49 295.62 225.49 295.62 225.49 295.62 225.49 295.62 225.49 295.62 225.49" fill="rgb(255, 255, 255)" stroke="rgb(255, 255, 255)" stroke-width="0.107" data-glyph-w="26.12" data-glyph-h="76.8" data-glyph-ascender="64" data-glyph-descender="-12.8" data-kerning="0"></path>
  </g>
</svg>
                  </g>
                </g>
                <g id="shape_4OQcxqWDZC" ref="shape_4OQcxqWDZC" key="shape_4OQcxqWDZC" mask="">
                  <g transform="translate(-123.97606852991998,-336.57354612671105) rotate(0,474.5,288) scale(1,1)" style="opacity: 1;mix-blend-mode: undefined;" filter="">
                    <!--普通元素-->
                    <svg xmlns="http://www.w3.org/2000/svg" version="1.1" xmlns:xlink="http://www.w3.org/1999/xlink" width="949" height="576" viewBox="-240 -320 949 576" data-ligature="true" data-parent="shape_4OQcxqWDZC">
  <g data-role="text" data-width="34.08" data-height="96">
    <path d="M0 0Q0 0 0 0" fill="rgb(255, 255, 255)" stroke="rgb(255, 255, 255)" stroke-width="0.133" data-glyph-w="31.08" data-glyph-h="96" data-glyph-ascender="80" data-glyph-descender="-16" data-kerning="0"></path>
  </g>
</svg>
                  </g>
                </g>
      </svg>