<?xml version="1.0" standalone="no"?><!DOCTYPE svg PUBLIC "-//W3C//DTD SVG 1.1//EN" "http://www.w3.org/Graphics/SVG/1.1/DTD/svg11.dtd"><svg t="1740747219902" class="icon" viewBox="0 0 1024 1024" version="1.1" xmlns="http://www.w3.org/2000/svg" p-id="22664" width="256" height="256" xmlns:xlink="http://www.w3.org/1999/xlink"><path d="M512 512m-448 0a448 448 0 1 0 896 0 448 448 0 1 0-896 0Z" fill="#7DA3DB" p-id="22665"></path><path d="M448 128c-107.4 0-206 37.8-283.2 100.8C101.8 306 64 404.6 64 512c0 247.4 200.6 448 448 448 107.4 0 206-37.8 283.2-100.8C858.2 782 896 683.4 896 576c0-247.4-200.6-448-448-448z" fill="#7094D6" p-id="22666"></path><path d="M384 192c-91 0-175.6 27.1-246.3 73.7C91.1 336.4 64 421 64 512c0 247.4 200.6 448 448 448 91 0 175.6-27.1 246.3-73.7C804.9 815.6 832 731 832 640c0-247.4-200.6-448-448-448z" fill="#587EC0" p-id="22667"></path><path d="M384 256c-126.5 0-238.7 61.2-308.7 155.6C67.9 443.8 64 477.5 64 512c0 247.4 200.6 448 448 448 34.5 0 68.2-3.9 100.4-11.3C706.8 878.7 768 766.5 768 640c0-212.1-171.9-384-384-384z" fill="#3F66AA" p-id="22668"></path><path d="M502.9 656.6L321 559.9l18.4 200.8c0 21 17.1 38.1 38.2 38.1h305.7c21.1 0 38.2-17 38.2-38.1l18.5-203-205.3 99.5c-10.2 4.4-21.8 4.2-31.8-0.6z" fill="#FFFFFF" p-id="22669"></path><path d="M844.2 403.7L553.6 265.9c-11.8-5.6-25.7-5.5-37.4 0.1L230.1 405c-8.9 4.3-16 11.5-20.2 20.5l-6.7 15.9c-0.2 0.4-0.2 0.8-0.1 1.2v228.9c-0.2 15.6 12.5 28.3 28.2 28.3s28.3-12.7 28.8-28.3V496.7c-0.4-2.3 2-3.8 4.1-2.8l242.1 119c11.3 5.3 24.3 5.5 35.7 0.5l298.4-129.8c9-3.9 17.2-9.9 22.3-18.2 13.5-22.3 4.5-50.8-18.5-61.7z" fill="#FFFFFF" p-id="22670"></path><path d="M536.7 523.5c-8.2-17.6-0.5-38.7 17.1-46.9l140.6-65.4c17.6-8.2 38.6-0.5 46.8 17.1 8.2 17.6 0.5 38.7-17.1 46.9l-140.6 65.4c-17.5 8.2-38.6 0.5-46.8-17.1z" fill="#9EBCE8" p-id="22671"></path></svg>